<svg data-dc-tpl="3" viewBox="0 0 200 130" width="400" height="260" fill="none" stroke="#1f1f1f" stroke-width="2" stroke-linejoin="round" stroke-linecap="round" xmlns="http://www.w3.org/2000/svg" data-om-id="c02ef977:8">
    
    <path data-dc-tpl="4" d="M57,12 L57,74
             C60,82 64,88 68,88 C74,88 78,86 84,81 C90,77 96,76 104,77 L114,78
             C115,75 116,71 118,68 C121,62 124,56 128,50 L133,42
             L133,10
             C128,12 122,9 116,9 C109,9 102,12 94,9 C85,6 76,9 68,10 Z" data-om-id="c02ef977:9"></path>
    
    <path data-dc-tpl="5" d="M57,74 C52,79 48,81 44,79 C38,76 33,83 27,83 C22,83 18,86 13,87 C9,88 6,86 6,86
             C4,90 2,93 5,96 C8,99 3,102 5,106 C7,109 4,112 4,112
             L108,112 L112,107 L120,98 C118,94 117,90 116,85 L114,78 L104,77
             C96,76 90,77 84,81 C78,86 74,88 68,88 C64,88 60,82 57,74 Z" data-om-id="c02ef977:10"></path>
    
    <path data-dc-tpl="6" d="M114,78 L116,85 C117,90 118,94 120,98
             C122,102 125,105 129,105 C135,105 141,106 147,103 C153,100 157,94 161,88 C165,82 169,76 173,71
             C177,66 181,62 186,61 L194,58
             C190,57 185,55 180,54 C174,52 170,51 166,52 C163,53 162,50 163,47 L142,47
             L142,32 C142,29 140,27 138,28 C135,29 134,32 134,36 L133,42 L128,50
             C124,56 121,62 118,68 C116,71 115,75 114,78 Z" data-om-id="c02ef977:11"></path>
  </svg>